<svg width="12" height="12" viewBox="0 0 12 12" fill="none" xmlns="http://www.w3.org/2000/svg">
<path d="M11.2931 1.30698C11.2015 1.09954 11.0307 0.936556 10.818 0.853721C10.7134 0.81184 10.6015 0.790696 10.4887 0.791483L1.85587 0.955212C1.62691 0.959554 1.40907 1.05388 1.25027 1.21743C1.09147 1.38098 1.00472 1.60037 1.0091 1.82733C1.01348 2.05428 1.10864 2.27022 1.27363 2.42763C1.43862 2.58504 1.65994 2.67104 1.8889 2.66669L8.4412 2.54242L1.4129 9.77241C1.33352 9.85349 1.27112 9.94936 1.22931 10.0545C1.18749 10.1596 1.16709 10.2719 1.16927 10.3848C1.17145 10.4978 1.19617 10.6092 1.24201 10.7127C1.28785 10.8161 1.3539 10.9095 1.43635 10.9876C1.51815 11.0662 1.61486 11.1281 1.7209 11.1695C1.82694 11.211 1.9402 11.2312 2.05417 11.2291C2.16813 11.2269 2.28053 11.2024 2.38489 11.157C2.48925 11.1115 2.58351 11.046 2.66221 10.9643L9.68172 3.72593L9.80708 10.221C9.81146 10.448 9.90662 10.6639 10.0716 10.8213C10.2366 10.9787 10.4579 11.0647 10.6869 11.0604C10.9158 11.056 11.1337 10.9617 11.2925 10.7982C11.4513 10.6346 11.538 10.4152 11.5336 10.1883L11.3685 1.63085C11.3649 1.51905 11.3394 1.40902 11.2931 1.30698Z" fill="black"/>
</svg>
