<svg width="508" height="301" viewBox="0 0 508 301" fill="none" xmlns="http://www.w3.org/2000/svg">
<path d="M0 22.5117C0 10.0789 10.0788 0 22.5117 0C34.9446 0 45.0234 10.0788 45.0234 22.5117V211.972H40C17.9086 211.972 0 194.063 0 171.972V22.5117Z" fill="#AD60E1"/>
<path d="M94.4448 171.972C94.4448 194.063 76.5362 211.972 54.4448 211.972L49.7106 211.972L49.7106 89.8761L54.4448 89.8761C76.5362 89.8761 94.4448 107.785 94.4448 129.876L94.4448 171.972Z" fill="#AD60E1"/>
<path d="M207.278 129.028C207.278 106.937 225.186 89.0281 247.278 89.0281H251.452V278.913C251.452 291.111 241.563 301 229.365 301C217.166 301 207.278 291.111 207.278 278.913V129.028Z" fill="#AD60E1"/>
<path d="M300.722 171.972C300.722 194.063 282.814 211.972 260.722 211.972L256.549 211.972L256.548 89.028L260.722 89.028C282.814 89.028 300.722 106.937 300.722 129.028L300.722 171.972Z" fill="#AD60E1"/>
<path d="M310.917 129.028C310.917 106.937 328.825 89.0281 350.916 89.0281H355.09V278.913C355.09 291.111 345.202 301 333.003 301C320.805 301 310.917 291.111 310.917 278.913V129.028Z" fill="#AD60E1"/>
<path d="M404.361 171.972C404.361 194.063 386.453 211.972 364.361 211.972L360.187 211.972L360.187 89.028L364.361 89.028C386.453 89.028 404.361 106.937 404.361 129.028L404.361 171.972Z" fill="#AD60E1"/>
<path d="M197.083 211.972L152.82 211.972L152.82 131.717L197.083 131.717L197.083 211.972Z" fill="#AD60E1"/>
<path d="M103.639 171.844C103.639 149.753 121.547 131.717 143.639 131.717L147.902 131.717L147.902 211.972L143.639 211.972C121.547 211.972 103.639 193.936 103.639 171.844Z" fill="#AD60E1"/>
<path d="M158.664 89.0281C179.882 89.0281 197.083 106.229 197.083 127.448L122.849 127.448C112.239 127.448 103.639 118.847 103.639 108.238C103.639 97.6287 112.239 89.0281 122.849 89.0281L158.664 89.0281Z" fill="#AD60E1"/>
<path d="M488.923 89.0281C499.459 89.0281 508 97.5694 508 108.106C508 118.642 499.459 127.183 488.923 127.183L414.555 127.183C414.555 106.111 431.638 89.0281 452.71 89.0281L488.923 89.0281Z" fill="#AD60E1"/>
<path d="M433.633 211.972C423.096 211.972 414.555 203.43 414.555 192.894C414.555 182.358 423.096 173.817 433.633 173.817L508 173.817C508 194.889 490.917 211.972 469.845 211.972L433.633 211.972Z" fill="#AD60E1"/>
<path d="M452.71 169.577C431.638 169.577 414.555 152.495 414.555 131.422L469.845 131.422C490.917 131.422 508 148.505 508 169.577L452.71 169.577Z" fill="#AD60E1"/>
</svg>
